<?xml version="1.0" standalone="no"?>
<!DOCTYPE svg PUBLIC "-//W3C//DTD SVG 20010904//EN"
 "http://www.w3.org/TR/2001/REC-SVG-20010904/DTD/svg10.dtd">
<svg version="1.0" xmlns="http://www.w3.org/2000/svg"
 width="700.000000pt" height="700.000000pt" viewBox="0 0 700.000000 700.000000"
 preserveAspectRatio="xMidYMid meet">
<metadata>
Created by potrace 1.11, written by Peter Selinger 2001-2013
</metadata>
<g transform="translate(0.000000,700.000000) scale(0.100000,-0.100000)"
fill="#000000" stroke="none">
<path d="M2852 6713 c-190 -190 -288 -340 -326 -501 -16 -68 -14 -203 4 -247
6 -16 11 -32 11 -35 -3 -23 69 -179 141 -305 40 -71 82 -160 93 -195 19 -65
62 -142 211 -377 162 -255 217 -387 217 -528 1 -123 -37 -215 -126 -311 l-29
-32 -25 24 c-37 34 -67 30 -112 -15 -59 -59 -193 -342 -222 -471 -20 -84 -21
-95 -21 -175 -1 -121 7 -160 94 -467 58 -207 61 -220 48 -258 -21 -63 -120
-161 -157 -155 -7 2 -20 3 -28 4 -37 3 -80 99 -145 326 -66 232 -115 335 -156
335 -20 0 -26 -9 -44 -67 -11 -38 -31 -138 -45 -223 -14 -85 -28 -166 -30
-180 -3 -14 -10 -54 -16 -90 -52 -304 -145 -565 -260 -722 -99 -136 -124 -218
-116 -373 15 -313 242 -637 594 -849 104 -62 240 -121 393 -170 252 -81 281
-85 630 -81 168 1 316 5 330 8 14 3 46 8 72 11 26 3 58 8 70 10 13 3 39 8 59
10 20 3 42 8 50 10 8 3 25 7 39 10 37 7 179 52 225 71 171 72 298 157 424 284
202 203 357 495 509 961 88 268 224 759 246 882 2 15 7 31 9 35 3 5 8 30 11
56 4 26 11 70 16 97 31 166 34 464 6 600 -47 221 -125 397 -291 655 -129 202
-199 337 -224 436 -18 69 -21 159 -7 210 12 45 -42 -66 -64 -131 -12 -36 -23
-72 -25 -80 -34 -148 -39 -194 -40 -355 0 -119 10 -257 20 -288 2 -6 6 -28 9
-47 12 -86 71 -286 131 -445 103 -272 133 -410 135 -620 2 -129 -7 -206 -36
-323 -78 -314 -263 -552 -478 -616 -74 -22 -96 -24 -161 -12 -62 12 -113 43
-142 88 -26 39 -28 48 -27 142 2 113 15 170 128 539 66 217 99 347 112 442 3
28 8 59 10 70 2 11 4 65 5 120 1 180 -34 315 -113 432 -26 38 -27 46 -19 85
10 43 16 83 30 186 9 60 6 305 -3 367 -3 22 -10 64 -15 94 -7 47 -5 65 16 125
14 39 26 78 28 86 2 8 9 38 15 65 21 93 25 139 24 305 -1 129 -6 188 -23 269
-36 171 -102 353 -144 399 -39 42 -59 26 -88 -75 -10 -37 -21 -77 -23 -88 -9
-40 -27 -131 -32 -160 -12 -67 -55 -235 -79 -310 -29 -88 -39 -209 -23 -294 7
-39 4 -72 -13 -153 -11 -57 -23 -114 -26 -128 -3 -14 -6 -29 -7 -35 -2 -5 -6
-23 -10 -40 -4 -16 -21 -74 -37 -128 l-30 -98 -27 21 c-109 86 -455 422 -512
497 -19 26 -39 51 -45 57 -22 24 -84 125 -109 178 -66 139 -78 275 -35 398 20
59 67 147 94 176 144 158 213 255 237 329 18 56 16 128 -5 185 -38 105 -116
182 -335 332 -160 110 -226 167 -252 219 -24 46 -25 65 -5 113 8 20 13 36 10
36 -3 0 -67 -62 -143 -137z"/>
<path d="M1478 5094 c-64 -34 -193 -316 -234 -506 -7 -32 -6 -178 1 -208 3
-14 8 -40 11 -59 3 -19 23 -100 45 -180 22 -80 51 -189 65 -241 72 -274 156
-490 247 -640 50 -83 146 -202 156 -195 22 13 158 264 203 375 73 177 102 304
101 441 -1 137 -27 210 -118 336 -87 120 -157 270 -255 548 -73 207 -108 284
-145 321 -28 28 -40 29 -77 8z"/>
<path d="M999 2756 c-56 -28 -61 -147 -14 -332 72 -283 195 -502 362 -642 59
-49 58 -49 96 53 36 97 45 138 53 230 19 235 -87 459 -291 612 -103 78 -163
101 -206 79z"/>
</g>
</svg>
