<svg width="106" height="145" viewBox="0 0 106 145" fill="none" xmlns="http://www.w3.org/2000/svg">
<path fill-rule="evenodd" clip-rule="evenodd" d="M57.1856 144.008C87.4466 144.008 93.5733 129.369 101.606 100.515C106.523 82.8547 106.24 75.4334 101.606 65.3735C98.6686 58.9976 89.0282 49.2961 93.6798 42.492C93.6798 42.492 84.621 54.009 93.6798 75.9846C102.739 97.9601 88.2833 115.143 79.3715 110.664C70.4597 106.185 91.08 81.579 79.3715 67.8505C67.6631 54.122 42.4421 41.2753 57.1856 26.1818C71.9292 11.0883 40.9312 8.10058 47.9838 0.0534058C27.7306 16.9322 39.6709 24.4848 42.3971 32.8481C45.1234 41.2115 59.3001 52.3201 47.9838 62.0449C36.6676 71.7697 48.1267 86.7082 42.3971 94.0717C36.6676 101.435 36.6367 87.1019 33.0669 81.5432C29.4971 75.9845 30.8568 100.967 22.7557 110.664C14.6546 120.361 26.9246 144.008 57.1856 144.008Z" fill="#FBC972"/>
<path fill-rule="evenodd" clip-rule="evenodd" d="M19.4011 87.096C19.4011 87.096 31.3694 69.952 24.105 61.1815C16.8407 52.4111 16.1368 32.3411 10.6118 43.5394C5.08688 54.7378 7.35025 56.233 10.6118 69.2956C13.8734 82.3582 19.4011 87.096 19.4011 87.096Z" fill="#FBC972"/>
<path fill-rule="evenodd" clip-rule="evenodd" d="M79.836 51.8246C82.6958 45.4132 83.6208 36.7605 79.836 26.8682C76.0513 16.9759 76.0513 31.2241 73.235 38.5898C70.4188 45.9556 76.9763 58.2361 79.836 51.8246Z" fill="#FBC972"/>
<path fill-rule="evenodd" clip-rule="evenodd" d="M11.0267 117.226C11.0267 117.226 18.0516 105.384 7.23274 96.3481C-3.58609 87.3126 1.73477 104.733 4.58254 109.856C7.43031 114.979 11.0267 117.226 11.0267 117.226Z" fill="#FBC972"/>
<path fill-rule="evenodd" clip-rule="evenodd" d="M53.6725 144.008C73.5816 144.008 78.8462 138.339 83.1569 127.699C87.4675 117.059 86.3411 127.062 77.7081 124.936C69.075 122.81 69.2117 112.125 72.2592 101.747C75.3067 91.3684 75.2479 83.6337 66.7307 70.3734C58.2135 57.1132 53.3616 64.8886 50.9511 81.5874C48.5406 98.2862 61.0015 111.464 48.7974 114.261C36.5933 117.059 49.1201 99.6582 39.5465 101.747C29.9729 103.835 37.9099 118.894 29.4902 120.913C21.0704 122.932 33.7635 144.008 53.6725 144.008Z" fill="#FFAC32"/>
<path fill-rule="evenodd" clip-rule="evenodd" d="M53.6699 112.039C53.6699 112.039 67.2428 93.119 59.0046 83.4399C50.7663 73.7607 49.968 51.6114 43.7023 63.97C37.4366 76.3285 40.0034 77.9786 43.7023 92.3946C47.4012 106.811 53.6699 112.039 53.6699 112.039Z" fill="#FBC972"/>
<path fill-rule="evenodd" clip-rule="evenodd" d="M77.93 73.5325C81.3227 65.9969 82.42 55.8271 77.93 44.2003C73.4401 32.5734 73.4401 49.3199 70.0992 57.9771C66.7582 66.6343 74.5374 81.0681 77.93 73.5325Z" fill="#FBC972"/>
</svg>
