<svg width="130" height="124" viewBox="0 0 130 124" fill="none" xmlns="http://www.w3.org/2000/svg">
<g filter="url(#filter0_d)">
<circle cx="52" cy="36" r="28" fill="white"/>
</g>
<path fill-rule="evenodd" clip-rule="evenodd" d="M51.6784 59.4529C62.3911 59.4529 64.5599 54.3292 67.4036 44.2304C69.1441 38.0492 69.0442 35.4517 67.4036 31.9307C66.3637 29.6992 62.9509 26.3036 64.5976 23.9222C64.5976 23.9222 61.3907 27.9532 64.5976 35.6446C67.8045 43.336 62.6872 49.35 59.5324 47.7824C56.3776 46.2148 63.6773 37.6026 59.5324 32.7977C55.3875 27.9927 46.4591 23.4963 51.6784 18.2136C56.8978 12.9309 45.9243 11.8852 48.4209 9.0687C41.2511 14.9763 45.4781 17.6197 46.4432 20.5469C47.4083 23.474 52.427 27.3621 48.4209 30.7657C44.4149 34.1694 48.4715 39.3979 46.4432 41.9751C44.4149 44.5523 44.4039 39.5357 43.1402 37.5901C41.8765 35.6446 42.3578 44.3886 39.49 47.7824C36.6221 51.1762 40.9658 59.4529 51.6784 59.4529Z" fill="#FBC972"/>
<path fill-rule="evenodd" clip-rule="evenodd" d="M38.3023 39.5336C38.3023 39.5336 42.5392 33.5332 39.9676 30.4635C37.3959 27.3939 37.1467 20.3694 35.1909 24.2888C33.235 28.2082 34.0362 28.7315 35.1909 33.3035C36.3455 37.8754 38.3023 39.5336 38.3023 39.5336Z" fill="#FBC972"/>
<path fill-rule="evenodd" clip-rule="evenodd" d="M59.6967 27.1886C60.7091 24.9446 61.0365 21.9162 59.6967 18.4539C58.3569 14.9915 58.3569 19.9784 57.3599 22.5564C56.3629 25.1344 58.6843 29.4326 59.6967 27.1886Z" fill="#FBC972"/>
<path fill-rule="evenodd" clip-rule="evenodd" d="M35.3377 50.0791C35.3377 50.0791 37.8246 45.9343 33.9946 42.7719C30.1647 39.6094 32.0483 45.7067 33.0564 47.4996C34.0646 49.2925 35.3377 50.0791 35.3377 50.0791Z" fill="#FBC972"/>
<path fill-rule="evenodd" clip-rule="evenodd" d="M50.4346 59.4529C57.4826 59.4529 59.3463 57.4688 60.8723 53.7448C62.3983 50.0207 61.9995 53.5217 58.9434 52.7775C55.8872 52.0333 55.9356 48.2937 57.0144 44.6613C58.0933 41.029 58.0724 38.3218 55.0573 33.6807C52.0421 29.0396 50.3245 31.761 49.4712 37.6056C48.6178 43.4502 53.0291 48.0623 48.7088 49.0415C44.3884 50.0207 48.823 43.9304 45.4339 44.6613C42.0447 45.3922 44.8545 50.6628 41.8739 51.3694C38.8932 52.0761 43.3866 59.4529 50.4346 59.4529Z" fill="#FFAC32"/>
<path fill-rule="evenodd" clip-rule="evenodd" d="M50.4337 48.2637C50.4337 48.2637 55.2386 41.6417 52.3222 38.254C49.4058 34.8663 49.1232 27.114 46.9051 31.4395C44.687 35.765 45.5956 36.3425 46.9051 41.3881C48.2145 46.4337 50.4337 48.2637 50.4337 48.2637Z" fill="#FBC972"/>
<path fill-rule="evenodd" clip-rule="evenodd" d="M59.0219 34.7864C60.2229 32.1489 60.6114 28.5895 59.0219 24.5201C57.4325 20.4507 57.4325 26.312 56.2497 29.342C55.067 32.372 57.8209 37.4238 59.0219 34.7864Z" fill="#FBC972"/>
<defs>
<filter id="filter0_d" x="-26" y="-32" width="156" height="156" filterUnits="userSpaceOnUse" color-interpolation-filters="sRGB">
<feFlood flood-opacity="0" result="BackgroundImageFix"/>
<feColorMatrix in="SourceAlpha" type="matrix" values="0 0 0 0 0 0 0 0 0 0 0 0 0 0 0 0 0 0 127 0"/>
<feOffset dy="10"/>
<feGaussianBlur stdDeviation="25"/>
<feColorMatrix type="matrix" values="0 0 0 0 0 0 0 0 0 0 0 0 0 0 0 0 0 0 0.27 0"/>
<feBlend mode="normal" in2="BackgroundImageFix" result="effect1_dropShadow"/>
<feBlend mode="normal" in="SourceGraphic" in2="effect1_dropShadow" result="shape"/>
</filter>
</defs>
</svg>
