<svg width="362" height="362" viewBox="0 0 362 362" fill="none" xmlns="http://www.w3.org/2000/svg">
<g filter="url(#filter0_d)">
<circle cx="181" cy="171" r="131" fill="white"/>
</g>
<path fill-rule="evenodd" clip-rule="evenodd" d="M179.495 280.726C229.615 280.726 239.763 256.754 253.067 209.506C261.21 180.587 260.742 168.435 253.067 151.962C248.202 141.521 232.235 125.635 239.939 114.493C239.939 114.493 224.935 133.352 239.939 169.337C254.942 205.322 231.001 233.459 216.241 226.125C201.481 218.791 235.633 178.498 216.241 156.018C196.849 133.537 155.076 112.501 179.495 87.7852C203.915 63.0696 152.574 58.1772 164.255 45C130.711 72.639 150.487 85.0063 155.002 98.7014C159.517 112.396 182.998 130.587 164.255 146.511C145.512 162.435 164.492 186.897 155.002 198.955C145.512 211.013 145.461 187.542 139.549 178.44C133.636 169.337 135.888 210.247 122.471 226.125C109.053 242.003 129.376 280.726 179.495 280.726Z" fill="#FBC972"/>
<path fill-rule="evenodd" clip-rule="evenodd" d="M116.915 187.532C116.915 187.532 136.737 159.459 124.706 145.097C112.674 130.736 111.508 97.8709 102.358 116.208C93.2068 134.546 96.9555 136.994 102.358 158.384C107.76 179.774 116.915 187.532 116.915 187.532Z" fill="#FBC972"/>
<path fill-rule="evenodd" clip-rule="evenodd" d="M217.01 129.775C221.746 119.277 223.278 105.108 217.01 88.9092C210.741 72.7105 210.741 96.042 206.077 108.103C201.412 120.165 212.273 140.274 217.01 129.775Z" fill="#FBC972"/>
<path fill-rule="evenodd" clip-rule="evenodd" d="M103.044 236.87C103.044 236.87 114.679 217.478 96.7607 202.683C78.842 187.887 87.6547 216.414 92.3713 224.802C97.0879 233.19 103.044 236.87 103.044 236.87Z" fill="#FBC972"/>
<path fill-rule="evenodd" clip-rule="evenodd" d="M173.676 280.726C206.651 280.726 215.37 271.443 222.51 254.02C229.649 236.597 227.784 252.977 213.485 249.495C199.187 246.013 199.413 228.517 204.46 211.522C209.508 194.528 209.41 181.863 195.304 160.149C181.197 138.435 173.161 151.168 169.169 178.512C165.176 205.856 185.815 227.434 165.602 232.016C145.389 236.597 166.136 208.103 150.28 211.522C134.424 214.942 147.569 239.601 133.624 242.907C119.679 246.213 140.702 280.726 173.676 280.726Z" fill="#FFAC32"/>
<path fill-rule="evenodd" clip-rule="evenodd" d="M173.672 228.377C173.672 228.377 196.152 197.395 182.507 181.545C168.863 165.696 167.541 129.426 157.163 149.663C146.785 169.9 151.037 172.602 157.163 196.209C163.289 219.815 173.672 228.377 173.672 228.377Z" fill="#FBC972"/>
<path fill-rule="evenodd" clip-rule="evenodd" d="M213.853 165.322C219.472 152.982 221.289 136.329 213.853 117.29C206.416 98.2514 206.416 125.674 200.883 139.85C195.349 154.026 208.234 177.661 213.853 165.322Z" fill="#FBC972"/>
<defs>
<filter id="filter0_d" x="0" y="0" width="362" height="362" filterUnits="userSpaceOnUse" color-interpolation-filters="sRGB">
<feFlood flood-opacity="0" result="BackgroundImageFix"/>
<feColorMatrix in="SourceAlpha" type="matrix" values="0 0 0 0 0 0 0 0 0 0 0 0 0 0 0 0 0 0 127 0"/>
<feOffset dy="10"/>
<feGaussianBlur stdDeviation="25"/>
<feColorMatrix type="matrix" values="0 0 0 0 0 0 0 0 0 0 0 0 0 0 0 0 0 0 0.27 0"/>
<feBlend mode="normal" in2="BackgroundImageFix" result="effect1_dropShadow"/>
<feBlend mode="normal" in="SourceGraphic" in2="effect1_dropShadow" result="shape"/>
</filter>
</defs>
</svg>
