<svg width="156" height="156" viewBox="0 0 156 156" fill="none" xmlns="http://www.w3.org/2000/svg">
<g filter="url(#filter0_d)">
<circle cx="78" cy="68" r="28" fill="white"/>
</g>
<path fill-rule="evenodd" clip-rule="evenodd" d="M77.6785 91.453C88.3911 91.453 90.56 86.3292 93.4036 76.2304C95.1441 70.0492 95.0443 67.4517 93.4036 63.9308C92.3638 61.6992 88.951 58.3037 90.5977 55.9222C90.5977 55.9222 87.3908 59.9532 90.5977 67.6446C93.8046 75.3361 88.6873 81.3501 85.5325 79.7824C82.3776 78.2148 89.6773 69.6027 85.5325 64.7977C81.3876 59.9927 72.4592 55.4964 77.6785 50.2137C82.8978 44.9309 71.9243 43.8852 74.421 41.0687C67.2512 46.9763 71.4781 49.6197 72.4432 52.5469C73.4084 55.4741 78.427 59.3621 74.421 62.7658C70.415 66.1694 74.4715 71.3979 72.4432 73.9751C70.415 76.5524 70.404 71.5357 69.1403 69.5902C67.8765 67.6446 68.3579 76.3887 65.49 79.7824C62.6222 83.1762 66.9659 91.453 77.6785 91.453Z" fill="#FBC972"/>
<path fill-rule="evenodd" clip-rule="evenodd" d="M64.3024 71.5336C64.3024 71.5336 68.5392 65.5332 65.9676 62.4636C63.396 59.3939 63.1468 52.3694 61.1909 56.2888C59.2351 60.2083 60.0363 60.7316 61.1909 65.3035C62.3456 69.8754 64.3024 71.5336 64.3024 71.5336Z" fill="#FBC972"/>
<path fill-rule="evenodd" clip-rule="evenodd" d="M85.6967 59.1886C86.7091 56.9446 87.0366 53.9162 85.6967 50.4539C84.3569 46.9916 84.3569 51.9785 83.3599 54.5565C82.363 57.1345 84.6844 61.4326 85.6967 59.1886Z" fill="#FBC972"/>
<path fill-rule="evenodd" clip-rule="evenodd" d="M61.3378 82.0792C61.3378 82.0792 63.8246 77.9343 59.9947 74.7719C56.1647 71.6094 58.0484 77.7067 59.0565 79.4996C60.0646 81.2925 61.3378 82.0792 61.3378 82.0792Z" fill="#FBC972"/>
<path fill-rule="evenodd" clip-rule="evenodd" d="M76.4347 91.453C83.4826 91.453 85.3463 89.4689 86.8723 85.7448C88.3983 82.0207 87.9996 85.5218 84.9434 84.7776C81.8873 84.0334 81.9357 80.2937 83.0145 76.6613C84.0933 73.029 84.0725 70.3218 81.0574 65.6807C78.0422 61.0397 76.3246 63.761 75.4712 69.6056C74.6179 75.4502 79.0292 80.0624 74.7088 81.0416C70.3885 82.0207 74.823 75.9304 71.4339 76.6613C68.0448 77.3923 70.8546 82.6628 67.8739 83.3694C64.8933 84.0761 69.3867 91.453 76.4347 91.453Z" fill="#FFAC32"/>
<path fill-rule="evenodd" clip-rule="evenodd" d="M76.4337 80.2637C76.4337 80.2637 81.2387 73.6417 78.3222 70.254C75.4058 66.8663 75.1232 59.114 72.9051 63.4395C70.687 67.765 71.5957 68.3426 72.9051 73.3881C74.2146 78.4337 76.4337 80.2637 76.4337 80.2637Z" fill="#FBC972"/>
<path fill-rule="evenodd" clip-rule="evenodd" d="M85.022 66.7864C86.223 64.1489 86.6115 60.5895 85.022 56.5201C83.4325 52.4507 83.4325 58.312 82.2498 61.342C81.0671 64.372 83.821 69.4238 85.022 66.7864Z" fill="#FBC972"/>
<defs>
<filter id="filter0_d" x="0" y="0" width="156" height="156" filterUnits="userSpaceOnUse" color-interpolation-filters="sRGB">
<feFlood flood-opacity="0" result="BackgroundImageFix"/>
<feColorMatrix in="SourceAlpha" type="matrix" values="0 0 0 0 0 0 0 0 0 0 0 0 0 0 0 0 0 0 127 0"/>
<feOffset dy="10"/>
<feGaussianBlur stdDeviation="25"/>
<feColorMatrix type="matrix" values="0 0 0 0 0 0 0 0 0 0 0 0 0 0 0 0 0 0 0.27 0"/>
<feBlend mode="normal" in2="BackgroundImageFix" result="effect1_dropShadow"/>
<feBlend mode="normal" in="SourceGraphic" in2="effect1_dropShadow" result="shape"/>
</filter>
</defs>
</svg>
