<svg width="362" height="362" viewBox="0 0 362 362" fill="none" xmlns="http://www.w3.org/2000/svg">
<g filter="url(#filter0_d)">
<circle cx="181" cy="171" r="131" fill="white"/>
</g>
<path fill-rule="evenodd" clip-rule="evenodd" d="M179.495 280.726C229.615 280.726 239.763 256.754 253.067 209.506C261.21 180.587 260.742 168.435 253.067 151.962C248.202 141.521 232.235 125.635 239.939 114.493C239.939 114.493 224.935 133.352 239.939 169.337C254.942 205.322 231.001 233.459 216.241 226.125C201.481 218.791 235.633 178.498 216.241 156.018C196.849 133.537 155.076 112.501 179.495 87.7852C203.915 63.0696 152.574 58.1772 164.255 45C130.711 72.639 150.487 85.0063 155.002 98.7014C159.517 112.396 182.998 130.587 164.255 146.511C145.512 162.435 164.492 186.897 155.002 198.955C145.512 211.013 145.461 187.542 139.549 178.44C133.636 169.337 135.888 210.247 122.471 226.125C109.053 242.003 129.376 280.726 179.495 280.726Z" fill="#FBC972"/>
<path fill-rule="evenodd" clip-rule="evenodd" d="M116.915 187.532C116.915 187.532 136.737 159.459 124.706 145.097C112.674 130.736 111.508 97.8709 102.357 116.208C93.2068 134.546 96.9555 136.994 102.357 158.384C107.76 179.774 116.915 187.532 116.915 187.532Z" fill="#FBC972"/>
<path fill-rule="evenodd" clip-rule="evenodd" d="M217.01 129.775C221.746 119.277 223.278 105.108 217.01 88.9092C210.741 72.7105 210.741 96.042 206.077 108.103C201.412 120.165 212.273 140.274 217.01 129.775Z" fill="#FBC972"/>
<path fill-rule="evenodd" clip-rule="evenodd" d="M103.044 236.87C103.044 236.87 114.679 217.478 96.7607 202.683C78.842 187.887 87.6547 216.414 92.3713 224.802C97.0879 233.19 103.044 236.87 103.044 236.87Z" fill="#FBC972"/>
<path fill-rule="evenodd" clip-rule="evenodd" d="M173.676 280.726C206.651 280.726 215.37 271.443 222.51 254.02C229.649 236.597 227.784 252.977 213.485 249.495C199.187 246.013 199.413 228.517 204.46 211.522C209.508 194.528 209.41 181.863 195.304 160.149C181.197 138.435 173.161 151.168 169.169 178.512C165.176 205.856 185.815 227.434 165.602 232.016C145.389 236.597 166.136 208.103 150.28 211.522C134.424 214.942 147.569 239.601 133.624 242.907C119.679 246.213 140.702 280.726 173.676 280.726Z" fill="#FFAC32"/>
<path fill-rule="evenodd" clip-rule="evenodd" d="M173.672 228.377C173.672 228.377 196.152 197.395 182.507 181.545C168.863 165.696 167.541 129.426 157.163 149.663C146.786 169.9 151.037 172.602 157.163 196.209C163.289 219.815 173.672 228.377 173.672 228.377Z" fill="#FBC972"/>
<path fill-rule="evenodd" clip-rule="evenodd" d="M213.853 165.322C219.472 152.982 221.289 136.329 213.853 117.29C206.416 98.2514 206.416 125.674 200.883 139.85C195.349 154.026 208.234 177.661 213.853 165.322Z" fill="#FBC972"/>
<g filter="url(#filter1_d)">
<path d="M105.133 208.93C106.591 208.93 108.031 208.656 109.453 208.109C110.875 207.599 112.133 206.724 113.227 205.484C114.357 204.281 115.268 202.695 115.961 200.727C116.654 198.758 117 196.352 117 193.508C117 190.445 116.234 187.474 114.703 184.594C113.208 181.714 111.312 178.888 109.016 176.117C106.755 173.31 104.294 170.539 101.633 167.805C99.0078 165.034 96.5469 162.227 94.25 159.383C91.9896 156.503 90.0938 153.549 88.5625 150.523C87.0677 147.461 86.3203 144.271 86.3203 140.953C86.3203 137.635 86.9219 134.646 88.125 131.984C89.3646 129.286 91.0234 127.008 93.1016 125.148C95.2161 123.253 97.6589 121.794 100.43 120.773C103.237 119.753 106.227 119.242 109.398 119.242C112.789 119.242 115.797 119.607 118.422 120.336C121.083 121.029 123.326 121.995 125.148 123.234C127.008 124.438 128.411 125.878 129.359 127.555C130.307 129.195 130.781 130.945 130.781 132.805C130.781 133.68 130.654 134.591 130.398 135.539C130.143 136.451 129.742 137.289 129.195 138.055C128.648 138.82 127.956 139.458 127.117 139.969C126.279 140.479 125.294 140.734 124.164 140.734C122.815 140.734 121.812 140.333 121.156 139.531C120.536 138.693 120.062 137.672 119.734 136.469C119.443 135.266 119.188 133.953 118.969 132.531C118.75 131.073 118.404 129.742 117.93 128.539C117.456 127.336 116.745 126.333 115.797 125.531C114.849 124.693 113.464 124.273 111.641 124.273C110.656 124.273 109.672 124.492 108.688 124.93C107.74 125.367 106.865 126.042 106.062 126.953C105.297 127.828 104.677 128.958 104.203 130.344C103.729 131.729 103.492 133.37 103.492 135.266C103.492 137.453 103.948 139.586 104.859 141.664C105.771 143.742 106.974 145.802 108.469 147.844C109.964 149.849 111.659 151.872 113.555 153.914C115.487 155.919 117.438 157.961 119.406 160.039C121.411 162.081 123.362 164.195 125.258 166.383C127.19 168.534 128.904 170.776 130.398 173.109C131.893 175.443 133.096 177.885 134.008 180.438C134.919 182.99 135.375 185.669 135.375 188.477C135.375 192.596 134.573 196.279 132.969 199.523C131.401 202.732 129.25 205.43 126.516 207.617C123.818 209.841 120.646 211.536 117 212.703C113.354 213.87 109.471 214.453 105.352 214.453C101.633 214.453 98.3333 213.979 95.4531 213.031C92.6094 212.12 90.2031 210.898 88.2344 209.367C86.2656 207.836 84.7708 206.086 83.75 204.117C82.7656 202.185 82.2734 200.18 82.2734 198.102C82.2734 197.227 82.401 196.297 82.6562 195.312C82.9479 194.292 83.349 193.362 83.8594 192.523C84.4062 191.685 85.0807 190.992 85.8828 190.445C86.6849 189.862 87.6146 189.57 88.6719 189.57C89.7656 189.57 90.6406 189.844 91.2969 190.391C91.9896 190.938 92.5365 191.667 92.9375 192.578C93.3385 193.49 93.6667 194.529 93.9219 195.695C94.1771 196.862 94.4505 198.047 94.7422 199.25C95.0339 200.453 95.3984 201.638 95.8359 202.805C96.2734 203.971 96.875 205.01 97.6406 205.922C98.4062 206.833 99.3906 207.562 100.594 208.109C101.797 208.656 103.31 208.93 105.133 208.93ZM170.375 172.672C170.375 171.76 170.083 171.068 169.5 170.594C168.917 170.12 168.169 169.883 167.258 169.883C165.982 169.883 164.76 170.174 163.594 170.758C162.464 171.341 161.461 172.198 160.586 173.328C159.711 174.458 159.018 175.862 158.508 177.539C157.997 179.18 157.742 181.094 157.742 183.281C157.742 185.396 157.888 187.146 158.18 188.531C158.508 189.917 158.927 191.029 159.438 191.867C159.984 192.669 160.604 193.234 161.297 193.562C161.99 193.891 162.719 194.055 163.484 194.055C164.432 194.055 165.326 193.818 166.164 193.344C167.003 192.833 167.732 192.195 168.352 191.43C168.971 190.664 169.464 189.807 169.828 188.859C170.193 187.911 170.375 186.964 170.375 186.016V172.672ZM161.68 148.719C160.44 148.719 159.292 148.865 158.234 149.156C157.177 149.448 156.266 149.812 155.5 150.25C154.734 150.688 154.133 151.18 153.695 151.727C153.258 152.237 153.039 152.729 153.039 153.203C153.039 153.75 153.312 154.151 153.859 154.406C154.443 154.625 155.081 154.898 155.773 155.227C156.466 155.518 157.086 155.956 157.633 156.539C158.216 157.086 158.508 157.943 158.508 159.109C158.508 159.875 158.344 160.586 158.016 161.242C157.724 161.862 157.305 162.427 156.758 162.938C156.247 163.411 155.628 163.794 154.898 164.086C154.206 164.341 153.477 164.469 152.711 164.469C150.669 164.469 149.01 163.776 147.734 162.391C146.495 161.005 145.875 159.164 145.875 156.867C145.875 154.643 146.458 152.747 147.625 151.18C148.792 149.576 150.305 148.263 152.164 147.242C154.06 146.221 156.193 145.474 158.562 145C160.932 144.49 163.302 144.234 165.672 144.234C168.516 144.234 171.232 144.544 173.82 145.164C176.409 145.784 178.688 146.768 180.656 148.117C182.661 149.466 184.247 151.18 185.414 153.258C186.617 155.336 187.219 157.852 187.219 160.805V191.703C187.219 192.031 187.237 192.396 187.273 192.797C187.31 193.198 187.401 193.562 187.547 193.891C187.693 194.219 187.911 194.492 188.203 194.711C188.495 194.93 188.914 195.039 189.461 195.039C190.117 195.039 190.719 194.802 191.266 194.328C191.849 193.818 192.359 193.307 192.797 192.797L194.164 193.945C193.617 194.711 192.961 195.549 192.195 196.461C191.43 197.372 190.5 198.229 189.406 199.031C188.312 199.833 187.036 200.508 185.578 201.055C184.12 201.602 182.461 201.875 180.602 201.875C178.305 201.875 176.263 201.201 174.477 199.852C172.69 198.466 171.523 196.352 170.977 193.508C169.81 195.076 168.589 196.388 167.312 197.445C166.073 198.503 164.797 199.359 163.484 200.016C162.172 200.672 160.841 201.146 159.492 201.438C158.18 201.729 156.849 201.875 155.5 201.875C153.75 201.875 152.055 201.602 150.414 201.055C148.773 200.508 147.297 199.651 145.984 198.484C144.708 197.281 143.669 195.732 142.867 193.836C142.102 191.94 141.719 189.625 141.719 186.891C141.719 183.573 142.375 180.857 143.688 178.742C145 176.628 146.714 174.859 148.828 173.438C150.979 171.979 153.404 170.74 156.102 169.719C158.836 168.698 161.625 167.622 164.469 166.492C166.583 165.654 168.115 164.414 169.062 162.773C170.047 161.096 170.539 159.383 170.539 157.633C170.539 154.935 169.737 152.784 168.133 151.18C166.565 149.539 164.414 148.719 161.68 148.719ZM200.07 154.516C199.852 153.057 199.487 151.927 198.977 151.125C198.503 150.323 197.682 149.922 196.516 149.922C195.896 149.922 195.349 150.031 194.875 150.25C194.438 150.469 193.964 150.779 193.453 151.18L192.359 149.812C193.198 149.12 194.128 148.445 195.148 147.789C196.206 147.096 197.336 146.495 198.539 145.984C199.742 145.474 201.036 145.055 202.422 144.727C203.807 144.398 205.266 144.234 206.797 144.234C208.984 144.234 210.753 144.617 212.102 145.383C213.451 146.112 214.508 147.042 215.273 148.172C216.076 149.266 216.641 150.451 216.969 151.727C217.297 153.003 217.534 154.151 217.68 155.172C219.029 166.219 220.542 174.586 222.219 180.273C223.896 185.961 225.883 188.805 228.18 188.805C229.456 188.805 230.677 188.112 231.844 186.727C233.047 185.341 234.086 183.445 234.961 181.039C235.872 178.633 236.602 175.826 237.148 172.617C237.695 169.409 237.969 165.982 237.969 162.336C237.969 159.93 237.805 157.906 237.477 156.266C237.148 154.589 236.784 153.185 236.383 152.055C235.982 150.924 235.617 149.995 235.289 149.266C234.961 148.5 234.797 147.826 234.797 147.242C234.797 146.695 235.016 146.24 235.453 145.875C235.891 145.51 236.401 145.201 236.984 144.945C237.604 144.69 238.224 144.508 238.844 144.398C239.5 144.289 240.029 144.234 240.43 144.234C241.487 144.234 242.253 144.38 242.727 144.672C243.201 144.964 243.583 145.529 243.875 146.367C244.203 147.424 244.422 148.828 244.531 150.578C244.677 152.292 244.75 154.133 244.75 156.102C244.75 158.909 244.549 161.99 244.148 165.344C243.784 168.698 243.201 172.07 242.398 175.461C241.633 178.852 240.648 182.133 239.445 185.305C238.242 188.477 236.802 191.302 235.125 193.781C233.484 196.224 231.607 198.193 229.492 199.688C227.414 201.146 225.081 201.875 222.492 201.875C219.466 201.875 216.841 201 214.617 199.25C212.393 197.5 210.497 195.221 208.93 192.414C207.398 189.607 206.122 186.453 205.102 182.953C204.081 179.453 203.242 175.953 202.586 172.453C201.966 168.917 201.456 165.581 201.055 162.445C200.69 159.273 200.362 156.63 200.07 154.516ZM272.477 155.773C273.862 153.659 275.339 151.745 276.906 150.031C277.562 149.302 278.273 148.591 279.039 147.898C279.805 147.206 280.589 146.586 281.391 146.039C282.229 145.492 283.086 145.055 283.961 144.727C284.836 144.398 285.711 144.234 286.586 144.234C288.445 144.234 289.904 144.799 290.961 145.93C292.018 147.023 292.547 148.573 292.547 150.578C292.547 151.818 292.438 153.021 292.219 154.188C292.036 155.318 291.654 156.703 291.07 158.344H289.539C289.32 157.214 288.81 156.284 288.008 155.555C287.206 154.789 286.039 154.406 284.508 154.406C283.378 154.406 282.266 154.625 281.172 155.062C280.078 155.464 279.003 155.974 277.945 156.594C276.924 157.214 275.94 157.888 274.992 158.617C274.081 159.346 273.242 160.039 272.477 160.695V196.188C272.477 196.661 272.404 197.227 272.258 197.883C272.112 198.539 271.747 199.159 271.164 199.742C270.617 200.326 269.779 200.818 268.648 201.219C267.555 201.656 266.042 201.875 264.109 201.875C262.177 201.875 260.646 201.638 259.516 201.164C258.422 200.727 257.583 200.198 257 199.578C256.417 198.958 256.052 198.32 255.906 197.664C255.76 197.008 255.688 196.479 255.688 196.078V153.859C255.688 152.802 255.432 151.891 254.922 151.125C254.448 150.323 253.628 149.922 252.461 149.922C251.841 149.922 251.312 150.031 250.875 150.25C250.438 150.469 249.964 150.779 249.453 151.18L248.305 149.812C249.143 149.12 250.073 148.445 251.094 147.789C252.151 147.096 253.281 146.495 254.484 145.984C255.688 145.474 256.982 145.055 258.367 144.727C259.753 144.398 261.211 144.234 262.742 144.234C264.31 144.234 265.641 144.453 266.734 144.891C267.865 145.292 268.776 145.839 269.469 146.531C270.198 147.188 270.763 147.935 271.164 148.773C271.565 149.612 271.857 150.469 272.039 151.344C272.258 152.182 272.385 153.003 272.422 153.805C272.458 154.57 272.477 155.227 272.477 155.773Z" fill="white"/>
</g>
<path d="M99.1328 203.93C100.591 203.93 102.031 203.656 103.453 203.109C104.875 202.599 106.133 201.724 107.227 200.484C108.357 199.281 109.268 197.695 109.961 195.727C110.654 193.758 111 191.352 111 188.508C111 185.445 110.234 182.474 108.703 179.594C107.208 176.714 105.312 173.888 103.016 171.117C100.755 168.31 98.2943 165.539 95.6328 162.805C93.0078 160.034 90.5469 157.227 88.25 154.383C85.9896 151.503 84.0938 148.549 82.5625 145.523C81.0677 142.461 80.3203 139.271 80.3203 135.953C80.3203 132.635 80.9219 129.646 82.125 126.984C83.3646 124.286 85.0234 122.008 87.1016 120.148C89.2161 118.253 91.6589 116.794 94.4297 115.773C97.237 114.753 100.227 114.242 103.398 114.242C106.789 114.242 109.797 114.607 112.422 115.336C115.083 116.029 117.326 116.995 119.148 118.234C121.008 119.438 122.411 120.878 123.359 122.555C124.307 124.195 124.781 125.945 124.781 127.805C124.781 128.68 124.654 129.591 124.398 130.539C124.143 131.451 123.742 132.289 123.195 133.055C122.648 133.82 121.956 134.458 121.117 134.969C120.279 135.479 119.294 135.734 118.164 135.734C116.815 135.734 115.812 135.333 115.156 134.531C114.536 133.693 114.062 132.672 113.734 131.469C113.443 130.266 113.188 128.953 112.969 127.531C112.75 126.073 112.404 124.742 111.93 123.539C111.456 122.336 110.745 121.333 109.797 120.531C108.849 119.693 107.464 119.273 105.641 119.273C104.656 119.273 103.672 119.492 102.688 119.93C101.74 120.367 100.865 121.042 100.062 121.953C99.2969 122.828 98.6771 123.958 98.2031 125.344C97.7292 126.729 97.4922 128.37 97.4922 130.266C97.4922 132.453 97.9479 134.586 98.8594 136.664C99.7708 138.742 100.974 140.802 102.469 142.844C103.964 144.849 105.659 146.872 107.555 148.914C109.487 150.919 111.438 152.961 113.406 155.039C115.411 157.081 117.362 159.195 119.258 161.383C121.19 163.534 122.904 165.776 124.398 168.109C125.893 170.443 127.096 172.885 128.008 175.438C128.919 177.99 129.375 180.669 129.375 183.477C129.375 187.596 128.573 191.279 126.969 194.523C125.401 197.732 123.25 200.43 120.516 202.617C117.818 204.841 114.646 206.536 111 207.703C107.354 208.87 103.471 209.453 99.3516 209.453C95.6328 209.453 92.3333 208.979 89.4531 208.031C86.6094 207.12 84.2031 205.898 82.2344 204.367C80.2656 202.836 78.7708 201.086 77.75 199.117C76.7656 197.185 76.2734 195.18 76.2734 193.102C76.2734 192.227 76.401 191.297 76.6562 190.312C76.9479 189.292 77.349 188.362 77.8594 187.523C78.4062 186.685 79.0807 185.992 79.8828 185.445C80.6849 184.862 81.6146 184.57 82.6719 184.57C83.7656 184.57 84.6406 184.844 85.2969 185.391C85.9896 185.938 86.5365 186.667 86.9375 187.578C87.3385 188.49 87.6667 189.529 87.9219 190.695C88.1771 191.862 88.4505 193.047 88.7422 194.25C89.0339 195.453 89.3984 196.638 89.8359 197.805C90.2734 198.971 90.875 200.01 91.6406 200.922C92.4062 201.833 93.3906 202.562 94.5938 203.109C95.7969 203.656 97.3099 203.93 99.1328 203.93ZM164.375 167.672C164.375 166.76 164.083 166.068 163.5 165.594C162.917 165.12 162.169 164.883 161.258 164.883C159.982 164.883 158.76 165.174 157.594 165.758C156.464 166.341 155.461 167.198 154.586 168.328C153.711 169.458 153.018 170.862 152.508 172.539C151.997 174.18 151.742 176.094 151.742 178.281C151.742 180.396 151.888 182.146 152.18 183.531C152.508 184.917 152.927 186.029 153.438 186.867C153.984 187.669 154.604 188.234 155.297 188.562C155.99 188.891 156.719 189.055 157.484 189.055C158.432 189.055 159.326 188.818 160.164 188.344C161.003 187.833 161.732 187.195 162.352 186.43C162.971 185.664 163.464 184.807 163.828 183.859C164.193 182.911 164.375 181.964 164.375 181.016V167.672ZM155.68 143.719C154.44 143.719 153.292 143.865 152.234 144.156C151.177 144.448 150.266 144.812 149.5 145.25C148.734 145.688 148.133 146.18 147.695 146.727C147.258 147.237 147.039 147.729 147.039 148.203C147.039 148.75 147.312 149.151 147.859 149.406C148.443 149.625 149.081 149.898 149.773 150.227C150.466 150.518 151.086 150.956 151.633 151.539C152.216 152.086 152.508 152.943 152.508 154.109C152.508 154.875 152.344 155.586 152.016 156.242C151.724 156.862 151.305 157.427 150.758 157.938C150.247 158.411 149.628 158.794 148.898 159.086C148.206 159.341 147.477 159.469 146.711 159.469C144.669 159.469 143.01 158.776 141.734 157.391C140.495 156.005 139.875 154.164 139.875 151.867C139.875 149.643 140.458 147.747 141.625 146.18C142.792 144.576 144.305 143.263 146.164 142.242C148.06 141.221 150.193 140.474 152.562 140C154.932 139.49 157.302 139.234 159.672 139.234C162.516 139.234 165.232 139.544 167.82 140.164C170.409 140.784 172.688 141.768 174.656 143.117C176.661 144.466 178.247 146.18 179.414 148.258C180.617 150.336 181.219 152.852 181.219 155.805V186.703C181.219 187.031 181.237 187.396 181.273 187.797C181.31 188.198 181.401 188.562 181.547 188.891C181.693 189.219 181.911 189.492 182.203 189.711C182.495 189.93 182.914 190.039 183.461 190.039C184.117 190.039 184.719 189.802 185.266 189.328C185.849 188.818 186.359 188.307 186.797 187.797L188.164 188.945C187.617 189.711 186.961 190.549 186.195 191.461C185.43 192.372 184.5 193.229 183.406 194.031C182.312 194.833 181.036 195.508 179.578 196.055C178.12 196.602 176.461 196.875 174.602 196.875C172.305 196.875 170.263 196.201 168.477 194.852C166.69 193.466 165.523 191.352 164.977 188.508C163.81 190.076 162.589 191.388 161.312 192.445C160.073 193.503 158.797 194.359 157.484 195.016C156.172 195.672 154.841 196.146 153.492 196.438C152.18 196.729 150.849 196.875 149.5 196.875C147.75 196.875 146.055 196.602 144.414 196.055C142.773 195.508 141.297 194.651 139.984 193.484C138.708 192.281 137.669 190.732 136.867 188.836C136.102 186.94 135.719 184.625 135.719 181.891C135.719 178.573 136.375 175.857 137.688 173.742C139 171.628 140.714 169.859 142.828 168.438C144.979 166.979 147.404 165.74 150.102 164.719C152.836 163.698 155.625 162.622 158.469 161.492C160.583 160.654 162.115 159.414 163.062 157.773C164.047 156.096 164.539 154.383 164.539 152.633C164.539 149.935 163.737 147.784 162.133 146.18C160.565 144.539 158.414 143.719 155.68 143.719ZM194.07 149.516C193.852 148.057 193.487 146.927 192.977 146.125C192.503 145.323 191.682 144.922 190.516 144.922C189.896 144.922 189.349 145.031 188.875 145.25C188.438 145.469 187.964 145.779 187.453 146.18L186.359 144.812C187.198 144.12 188.128 143.445 189.148 142.789C190.206 142.096 191.336 141.495 192.539 140.984C193.742 140.474 195.036 140.055 196.422 139.727C197.807 139.398 199.266 139.234 200.797 139.234C202.984 139.234 204.753 139.617 206.102 140.383C207.451 141.112 208.508 142.042 209.273 143.172C210.076 144.266 210.641 145.451 210.969 146.727C211.297 148.003 211.534 149.151 211.68 150.172C213.029 161.219 214.542 169.586 216.219 175.273C217.896 180.961 219.883 183.805 222.18 183.805C223.456 183.805 224.677 183.112 225.844 181.727C227.047 180.341 228.086 178.445 228.961 176.039C229.872 173.633 230.602 170.826 231.148 167.617C231.695 164.409 231.969 160.982 231.969 157.336C231.969 154.93 231.805 152.906 231.477 151.266C231.148 149.589 230.784 148.185 230.383 147.055C229.982 145.924 229.617 144.995 229.289 144.266C228.961 143.5 228.797 142.826 228.797 142.242C228.797 141.695 229.016 141.24 229.453 140.875C229.891 140.51 230.401 140.201 230.984 139.945C231.604 139.69 232.224 139.508 232.844 139.398C233.5 139.289 234.029 139.234 234.43 139.234C235.487 139.234 236.253 139.38 236.727 139.672C237.201 139.964 237.583 140.529 237.875 141.367C238.203 142.424 238.422 143.828 238.531 145.578C238.677 147.292 238.75 149.133 238.75 151.102C238.75 153.909 238.549 156.99 238.148 160.344C237.784 163.698 237.201 167.07 236.398 170.461C235.633 173.852 234.648 177.133 233.445 180.305C232.242 183.477 230.802 186.302 229.125 188.781C227.484 191.224 225.607 193.193 223.492 194.688C221.414 196.146 219.081 196.875 216.492 196.875C213.466 196.875 210.841 196 208.617 194.25C206.393 192.5 204.497 190.221 202.93 187.414C201.398 184.607 200.122 181.453 199.102 177.953C198.081 174.453 197.242 170.953 196.586 167.453C195.966 163.917 195.456 160.581 195.055 157.445C194.69 154.273 194.362 151.63 194.07 149.516ZM266.477 150.773C267.862 148.659 269.339 146.745 270.906 145.031C271.562 144.302 272.273 143.591 273.039 142.898C273.805 142.206 274.589 141.586 275.391 141.039C276.229 140.492 277.086 140.055 277.961 139.727C278.836 139.398 279.711 139.234 280.586 139.234C282.445 139.234 283.904 139.799 284.961 140.93C286.018 142.023 286.547 143.573 286.547 145.578C286.547 146.818 286.438 148.021 286.219 149.188C286.036 150.318 285.654 151.703 285.07 153.344H283.539C283.32 152.214 282.81 151.284 282.008 150.555C281.206 149.789 280.039 149.406 278.508 149.406C277.378 149.406 276.266 149.625 275.172 150.062C274.078 150.464 273.003 150.974 271.945 151.594C270.924 152.214 269.94 152.888 268.992 153.617C268.081 154.346 267.242 155.039 266.477 155.695V191.188C266.477 191.661 266.404 192.227 266.258 192.883C266.112 193.539 265.747 194.159 265.164 194.742C264.617 195.326 263.779 195.818 262.648 196.219C261.555 196.656 260.042 196.875 258.109 196.875C256.177 196.875 254.646 196.638 253.516 196.164C252.422 195.727 251.583 195.198 251 194.578C250.417 193.958 250.052 193.32 249.906 192.664C249.76 192.008 249.688 191.479 249.688 191.078V148.859C249.688 147.802 249.432 146.891 248.922 146.125C248.448 145.323 247.628 144.922 246.461 144.922C245.841 144.922 245.312 145.031 244.875 145.25C244.438 145.469 243.964 145.779 243.453 146.18L242.305 144.812C243.143 144.12 244.073 143.445 245.094 142.789C246.151 142.096 247.281 141.495 248.484 140.984C249.688 140.474 250.982 140.055 252.367 139.727C253.753 139.398 255.211 139.234 256.742 139.234C258.31 139.234 259.641 139.453 260.734 139.891C261.865 140.292 262.776 140.839 263.469 141.531C264.198 142.188 264.763 142.935 265.164 143.773C265.565 144.612 265.857 145.469 266.039 146.344C266.258 147.182 266.385 148.003 266.422 148.805C266.458 149.57 266.477 150.227 266.477 150.773Z" fill="#5A4F53"/>
<defs>
<filter id="filter0_d" x="0" y="0" width="362" height="362" filterUnits="userSpaceOnUse" color-interpolation-filters="sRGB">
<feFlood flood-opacity="0" result="BackgroundImageFix"/>
<feColorMatrix in="SourceAlpha" type="matrix" values="0 0 0 0 0 0 0 0 0 0 0 0 0 0 0 0 0 0 127 0"/>
<feOffset dy="10"/>
<feGaussianBlur stdDeviation="25"/>
<feColorMatrix type="matrix" values="0 0 0 0 0 0 0 0 0 0 0 0 0 0 0 0 0 0 0.27 0"/>
<feBlend mode="normal" in2="BackgroundImageFix" result="effect1_dropShadow"/>
<feBlend mode="normal" in="SourceGraphic" in2="effect1_dropShadow" result="shape"/>
</filter>
<filter id="filter1_d" x="75.2734" y="116.242" width="224.273" height="109.211" filterUnits="userSpaceOnUse" color-interpolation-filters="sRGB">
<feFlood flood-opacity="0" result="BackgroundImageFix"/>
<feColorMatrix in="SourceAlpha" type="matrix" values="0 0 0 0 0 0 0 0 0 0 0 0 0 0 0 0 0 0 127 0"/>
<feOffset dy="4"/>
<feGaussianBlur stdDeviation="3.5"/>
<feColorMatrix type="matrix" values="0 0 0 0 0 0 0 0 0 0 0 0 0 0 0 0 0 0 0.25 0"/>
<feBlend mode="normal" in2="BackgroundImageFix" result="effect1_dropShadow"/>
<feBlend mode="normal" in="SourceGraphic" in2="effect1_dropShadow" result="shape"/>
</filter>
</defs>
</svg>
